<svg width="152" height="37" viewBox="0 0 152 37" fill="none" xmlns="http://www.w3.org/2000/svg">
<g clip-path="url(#clip0_403_9778)">
<path d="M18.0339 8.30185C19.4215 9.04974 20.4876 10.0884 21.2371 11.4178C21.985 12.7472 22.3581 14.2592 22.3581 15.9536C22.3581 17.6481 21.9834 19.1439 21.2371 20.4895C20.4892 21.835 19.4215 22.8947 18.0339 23.6668C16.6464 24.4389 15.0294 24.8266 13.1863 24.8266H5.83337V8.42623C5.83337 7.7381 6.39066 7.1792 7.0804 7.1792H13.1863C15.0294 7.1792 16.6464 7.55395 18.0339 8.30023V8.30185ZM15.6529 18.8693C16.3847 18.1892 16.7497 17.2168 16.7497 15.9536C16.7497 14.6905 16.3847 13.7196 15.6529 13.038C14.9212 12.3563 13.9326 12.0155 12.6872 12.0155H11.3675V19.8918H12.6872C13.9342 19.8918 14.9228 19.551 15.6529 18.8693Z" fill="#F1F1F2"/>
<path d="M37.8862 18.7708H28.9874C29.0698 19.9839 29.577 20.5896 30.5074 20.5896C31.1051 20.5896 31.538 20.315 31.8029 19.7674H37.6601C37.4614 20.7641 37.0414 21.6573 36.4017 22.4472C35.7621 23.2355 34.956 23.8606 33.9836 24.3162C33.0128 24.7733 31.9434 25.0011 30.7804 25.0011C29.3848 25.0011 28.1426 24.7103 27.0538 24.1288C25.9651 23.5473 25.1171 22.7122 24.5129 21.6234C23.9056 20.5347 23.6035 19.2586 23.6035 17.7983C23.6035 16.3381 23.9056 15.0604 24.5129 13.9716C25.1187 12.8829 25.9667 12.0494 27.0538 11.4663C28.1426 10.8848 29.3848 10.594 30.7804 10.594C32.176 10.594 33.4182 10.8815 34.507 11.4533C35.5941 12.0268 36.4421 12.8441 37.0479 13.9086C37.6536 14.9715 37.9573 16.2266 37.9573 17.6723C37.9573 18.0552 37.9331 18.4202 37.883 18.7691L37.8862 18.7708ZM32.3521 16.3526C32.3521 15.8874 32.2019 15.5337 31.903 15.2946C31.6042 15.0539 31.2311 14.9328 30.782 14.9328C29.8015 14.9328 29.2281 15.406 29.0633 16.3542H32.3537L32.3521 16.3526Z" fill="#F1F1F2"/>
<path d="M53.3271 12.2901C54.2317 13.3707 54.6856 14.8326 54.6856 16.6773V24.8266H49.1773V17.3751C49.1773 16.7112 48.998 16.183 48.6411 15.7921C48.2841 15.4012 47.8059 15.2074 47.2083 15.2074C46.6106 15.2074 46.1115 15.4028 45.7625 15.7921C45.4136 16.1814 45.2392 16.7112 45.2392 17.3751V24.8266H39.7051V10.7701H45.2392V12.9136C45.6705 12.2497 46.2488 11.7086 46.9708 11.2934C47.6929 10.8783 48.5522 10.6699 49.5505 10.6699C51.1626 10.6699 52.4209 11.2094 53.3271 12.2901Z" fill="#F1F1F2"/>
<path d="M65.8266 20.1163V24.8266H63.7331C60.5396 24.8266 57.9502 22.2372 57.9502 19.0437V15.3802H56.2057V10.7684H57.9502V7.89962C57.9502 7.61209 58.1828 7.3811 58.4688 7.3811H63.4827V10.7701H65.7765V15.3818H63.4827V19.1697C63.4827 19.5025 63.5603 19.7432 63.7186 19.8934C63.8769 20.042 64.1385 20.1179 64.5036 20.1179H65.8249L65.8266 20.1163Z" fill="#F1F1F2"/>
<path d="M67.9571 13.9474C68.4643 12.8586 69.1573 12.0268 70.0376 11.4549C70.918 10.8815 71.9065 10.5956 73.0033 10.5956C73.9176 10.5956 74.7059 10.783 75.3698 11.1561C76.0353 11.5309 76.5425 12.0413 76.8914 12.689V10.77H82.3997V24.8282H76.8914V22.9092C76.5425 23.5569 76.0353 24.0674 75.3698 24.4421C74.7059 24.8169 73.916 25.0027 73.0033 25.0027C71.9065 25.0027 70.918 24.7151 70.0376 24.1433C69.1573 23.5715 68.4643 22.7396 67.9571 21.6509C67.4499 20.5621 67.1979 19.2779 67.1979 17.7999C67.1979 16.3219 67.4499 15.0377 67.9571 13.949V13.9474ZM76.3196 16.0521C75.9368 15.637 75.4473 15.4286 74.8497 15.4286C74.252 15.4286 73.7609 15.637 73.3797 16.0521C72.9969 16.4673 72.8063 17.0488 72.8063 17.7983C72.8063 18.5478 72.9969 19.1277 73.3797 19.5429C73.7625 19.958 74.2536 20.1664 74.8497 20.1664C75.4457 20.1664 75.9384 19.9596 76.3196 19.5429C76.7024 19.1277 76.893 18.5462 76.893 17.7983C76.893 17.0504 76.7008 16.4689 76.3196 16.0521Z" fill="#F1F1F2"/>
<path d="M90.4279 7.18081V24.8282H84.8938V8.42623C84.8938 7.7381 85.4511 7.1792 86.1408 7.1792H90.4279V7.18081Z" fill="#F1F1F2"/>
<path d="M101.793 24.8266L98.4786 18.4962H98.4544V24.8266H92.9203V8.42623C92.9203 7.7381 93.4776 7.1792 94.1673 7.1792H101.146C102.575 7.1792 103.796 7.43281 104.809 7.94002C105.822 8.44723 106.581 9.13536 107.088 10.0092C107.596 10.8815 107.849 11.8653 107.849 12.9621C107.849 14.1412 107.521 15.1896 106.864 16.1022C106.208 17.0165 105.265 17.674 104.035 18.0713L107.873 24.8266H101.792H101.793ZM98.4528 14.8068H100.645C101.178 14.8068 101.575 14.6872 101.842 14.4449C102.107 14.2042 102.241 13.8263 102.241 13.311C102.241 12.8458 102.103 12.4807 101.83 12.2142C101.556 11.9493 101.162 11.8152 100.646 11.8152H98.4544V14.8068H98.4528Z" fill="#F1F1F2"/>
<path d="M109.631 13.9474C110.138 12.8586 110.831 12.0268 111.711 11.4549C112.592 10.8831 113.58 10.5956 114.677 10.5956C115.591 10.5956 116.38 10.783 117.044 11.1561C117.709 11.5309 118.216 12.0413 118.565 12.689V10.77H124.074V24.8282H118.565V22.9092C118.216 23.5569 117.709 24.0674 117.044 24.4421C116.38 24.8169 115.59 25.0027 114.677 25.0027C113.58 25.0027 112.592 24.7151 111.711 24.1433C110.831 23.5699 110.138 22.7396 109.631 21.6509C109.124 20.5621 108.872 19.2779 108.872 17.7999C108.872 16.3219 109.124 15.0377 109.631 13.949V13.9474ZM117.993 16.0521C117.611 15.637 117.121 15.4286 116.523 15.4286C115.926 15.4286 115.435 15.637 115.054 16.0521C114.671 16.4673 114.48 17.0488 114.48 17.7983C114.48 18.5478 114.671 19.1277 115.054 19.5429C115.436 19.958 115.927 20.1664 116.523 20.1664C117.12 20.1664 117.612 19.9596 117.993 19.5429C118.376 19.1277 118.567 18.5462 118.567 17.7983C118.567 17.0504 118.375 16.4689 117.993 16.0521Z" fill="#F1F1F2"/>
<path d="M142.445 10.7701L134.027 30.2945H127.97L130.929 24.1304L125.072 10.7701H131.229L133.872 17.8985L136.34 10.7701H142.446H142.445Z" fill="#F1F1F2"/>
<path d="M144.288 6H141.887V8.54575H144.288V10.9477H146.833V8.54575V6H144.288Z" fill="#F1F1F2"/>
</g>
<defs>
<clipPath id="clip0_403_9778">
<rect width="141" height="24.2945" fill="white" transform="translate(5.83337 6)"/>
</clipPath>
</defs>
</svg>
